# AST/ASF file generated using VICON BodyLanguage
# -----------------------------------------------
:version 1.10
:name VICON
:units
  mass 1.0
  length 0.45
  angle deg
:documentation
   .ast/.asf automatically generated from VICON data using
   VICON BodyBuilder and BodyLanguage model FoxedUp or BRILLIANT.MOD
:root
   order TX TY TZ RX RY RZ
   axis XYZ
   position 0 0 0  
   orientation 0 0 0 
:bonedata
  begin
     id 1 
     name lhipjoint
     direction 0.61886 -0.69539 0.365302 
     length 2.20474 
     axis 0 0 0  XYZ
  end
  begin
     id 2 
     name lfemur
     direction 0.34202 -0.939693 0  
     length 6.65149  
     axis 0 0 20  XYZ
    dof rx ry rz
    limits (-160.0 20.0)
           (-70.0 70.0)
           (-60.0 70.0)
  end
  begin
     id 3 
     name ltibia
     direction 0.34202 -0.939693 0   
     length 6.35814   
     axis 0 0 20   XYZ
    dof rx
    limits (-10.0 170.0)
  end
  begin
     id 4 
     name lfoot
     direction 0.101224 -0.278109 0.955201   
     length 2.18766   
     axis -90 7.62852e-016 20   XYZ
    dof rx rz
    limits (-45.0 90.0)
           (-70.0 20.0)
  end
  begin
     id 5 
     name ltoes
     direction 1.53524e-011 -4.21877e-011 1   
     length 1.09206   
     axis -90 7.62852e-016 20   XYZ
    dof rx
    limits (-90.0 20.0)
  end
  begin
     id 6 
     name rhipjoint
     direction -0.600207 -0.708087 0.371972   
     length 2.1652  
     axis 0 0 0  XYZ 
  end
  begin
     id 7 
     name rfemur
     direction -0.34202 -0.939693 0   
     length 6.54691   
     axis 0 0 -20   XYZ
    dof rx ry rz
    limits (-160.0 20.0)
           (-70.0 70.0)
           (-70.0 60.0)
  end
  begin
     id 8 
     name rtibia
     direction -0.34202 -0.939693 0   
     length 6.37474   
     axis 0 0 -20   XYZ
    dof rx
    limits (-10.0 170.0)
 end
 begin
     id 9 
     name rfoot
     direction -0.111266 -0.3057 0.945604   
     length 2.00903  
     axis -90 -7.62852e-016 -20   XYZ
    dof rx rz
    limits (-45.0 90.0)
           (-20.0 70.0)
  end
  begin
     id 10 
     name rtoes
     direction -1.5362e-011 -4.21913e-011 1   
     length 1.00221   
     axis -90 -7.62852e-016 -20   XYZ
    dof rx
    limits (-90.0 20.0)
  end
  begin
     id 11 
     name lowerback
     direction -0.0224561 0.999731 -0.00577314   
     length 2.10409   
     axis 0 0 0   XYZ
    dof rx ry rz
    limits (-20.0 45.0)
           (-30.0 30.0)
           (-30.0 30.0)
  end
  begin
     id 12 
     name upperback
     direction 0.0213126 0.999185 -0.0342817   
     length 2.09783   
     axis 0 0 0   XYZ
    dof rx ry rz
    limits (-20.0 45.0)
           (-30.0 30.0)
           (-30.0 30.0)
  end
  begin
     id 13 
     name thorax
     direction 0.0312356 0.999036 -0.0308451   
     length 2.09788   
     axis 0 0 0   XYZ
    dof rx ry rz
    limits (-20.0 45.0)
           (-30.0 30.0)
           (-30.0 30.0)
  end
  begin
     id 14 
     name lowerneck
     direction -0.0114419 0.996481 0.0830329   
     length 1.38575   
     axis 0 0 0   XYZ
    dof rx ry rz
    limits (-20.0 45.0)
           (-30.0 30.0)
           (-30.0 30.0)
  end
  begin
     id 15 
     name upperneck
     direction -0.0075675 0.996187 -0.0869092   
     length 1.39401   
     axis 0 0 0   XYZ
    dof rx ry rz
    limits (-20.0 45.0)
           (-30.0 30.0)
           (-30.0 30.0)
  end
  begin
     id 16
     name head
     direction -0.00222073 0.999264 -0.0382974  
     length 1.3964  
     axis 0 0 0   XYZ
    dof rx ry rz
    limits (-20.0 45.0)
           (-30.0 30.0)
           (-30.0 30.0)
  end
  begin
     id 17 
     name lclavicle
     direction 0.965962 0.222138 0.132556  
     length 2.81514  
     axis 0 0 0   XYZ
    dof ry rz
    limits (-20.0 10.0)
           (0.0 20.0)
  end
  begin
     id 18 
     name lhumerus
     direction 1 -4.48972e-011 7.03471e-018   
     length 4.47366   
     axis 180 -30 -90   XYZ
    dof rx ry rz
    limits (-60.0 90.0)
           (-90.0 90.0)
           (-90.0 90.0)
  end
  begin
     id 19
     name lradius
     direction 1 -4.48951e-011 -6.22192e-028   
     length 3.19948   
     axis 180 -30 -90   XYZ
    dof rx
    limits (-10.0 170.0)
  end
  begin
     id 20
     name lwrist
     direction 1 -4.48967e-011 -1.24264e-027   
     length 1.59974   
     axis 1.40095e-015 90 90   XYZ
    dof ry
    limits (-180.0 0.0)
 end
  begin
     id 21 
     name lhand
     direction 1 -4.4897e-011 -2.48528e-027   
     length 0.492667   
     axis 1.58582e-015 90 90   XYZ
    dof rx rz
    limits (-90.0 90.0)
           (-45.0 45.0)
  end
  begin
     id 22 
     name lfingers
     direction 1 -4.48996e-011 -4.97056e-027   
     length 0.397201   
     axis 3.17164e-015 90 90   XYZ
    dof rx
    limits (0.0 90.0)
  end
  begin
     id 23
     name lthumb
     direction 0.707107 -6.34981e-011 0.707107   
     length 0.570303   
     axis -90 45 2.85299e-015   XYZ
    dof rx rz
    limits (-45.0 45.0)
           (-45.0 45.0)
  end
  begin
     id 24 
     name rclavicle
     direction -0.961164 0.229034 0.153972   
     length 3.09348  
     axis 0 0 0   XYZ 
    dof ry rz
    limits (-10.0 20.0)
           (-20.0 0.0)
  end
  begin
     id 25 
     name rhumerus
     direction -1 -4.48971e-011 -9.06263e-028  
     length 4.3269   
     axis 180 30 90   XYZ
    dof rx ry rz
    limits (-90.0 60.0)
           (-90.0 90.0)
           (-90.0 90.0)
  end
  begin
     id 26 
     name rradius
     direction -1 -4.48953e-011 1.44659e-027   
     length 3.1896   
     axis 180 30 90   XYZ
    dof rx
    limits (-10.0 170.0)
  end
  begin
     id 27 
     name rwrist
     direction -1 -4.48988e-011 -1.24264e-027   
     length 1.5948   
     axis 1.40095e-015 -90 -90   XYZ
    dof ry
    limits (-180.0 0.0)
  end
  begin
     id 28
     name rhand
     direction -1 -4.49033e-011 -2.48528e-027   
     length 0.464496   
     axis 1.58582e-015 -90 -90   XYZ
    dof rx rz
    limits (-90.0 90.0)
           (-45.0 45.0)
  end
  begin
     id 29
     name rfingers
     direction -1 -4.48905e-011 -4.97056e-027   
     length 0.374489   
     axis 3.17164e-015 -90 -90   XYZ
    dof rx
    limits (0.0 90.0)
  end
  begin
     id 30
     name rthumb
     direction -0.707107 -6.34909e-011 0.707107   
     length 0.537693   
     axis -90 -45 -2.85299e-015   XYZ
    dof rx rz
    limits (-45.0 45.0)
           (-45.0 45.0)
  end
:hierarchy
  begin
    root lhipjoint rhipjoint lowerback
    lhipjoint lfemur
    lfemur ltibia
    ltibia lfoot
    lfoot ltoes
    rhipjoint rfemur
    rfemur rtibia
    rtibia rfoot
    rfoot rtoes
    lowerback upperback
    upperback thorax
    thorax lowerneck lclavicle rclavicle
    lowerneck upperneck
    upperneck head
    lclavicle lhumerus
    lhumerus lradius
    lradius lwrist
    lwrist lhand lthumb
    lhand lfingers
    rclavicle rhumerus
    rhumerus rradius
    rradius rwrist
    rwrist rhand rthumb
    rhand rfingers
  end

#!OML:ASF G:\acrobat\cartwheel_test 2\Patient 1\Session 2\acrobat4.ASF
:FULLY-SPECIFIED
:DEGREES
1079
root 2.64558 13.3085 15.9299 49.7832 131.492 395.119
lowerback 18.0723 -1.45279 -10.7513
upperback 2.02579 -3.69659 2.37281
thorax -7.0597 -1.40529 9.60809
lowerneck -17.9083 -2.63005 -3.70021
upperneck 3.33812 -3.45636 11.8869
head 4.19596 -0.929292 4.02571
rclavicle -1.59028e-015 -1.59028e-014
rhumerus -44.0166 -16.6299 -37.0627
rradius 85.0745
rwrist -24.3806
rhand -27.371 330.796
rfingers 7.12502
rthumb -0.778427 -419.182
lclavicle -1.59028e-015 -1.59028e-014
lhumerus -11.8341 -8.37466 53.9433
lradius 101.46
lwrist 13.4917
lhand -42.7863 -362.543
lfingers 7.12502
lthumb -15.6526 26.8439
rfemur -13.7618 22.0739 5.07836
rtibia 17.153
rfoot -14.6947 -24.0341
rtoes -25.1923
lfemur -426.092 38.2528 -358.864
ltibia 79.1599
lfoot 153.065 -181.512
ltoes -17.1522
1080
root 2.74206 13.4465 16.2819 46.8238 131.631 392.951
lowerback 17.6812 -1.48842 -10.4708
upperback 1.92772 -3.64956 2.47182
thorax -6.97704 -1.39394 9.5228
lowerneck -15.9318 -2.24141 -1.6011
upperneck 2.14138 -3.07348 8.96295
head 3.37939 -0.985242 2.79502
rclavicle -4.29375e-014 0
rhumerus -43.8188 -15.2418 -38.2036
rradius 87.0593
rwrist -22.7937
rhand -28.0202 330.9
rfingers 7.12502
rthumb -1.40545 -419.075
lclavicle -4.29375e-014 0
lhumerus -13.9996 -9.03272 55.5779
lradius 104.789
lwrist 13.0551
lhand -43.1593 -362.796
lfingers 7.12502
lthumb -16.0117 26.562
rfemur -11.8263 21.4121 6.19902
rtibia 16.2903
rfoot -13.7176 -23.1809
rtoes -24.9755
lfemur -423.86 37.404 -358.034
ltibia 75.8354
lfoot 155.869 -182.239
ltoes -16.7271
1081
root 2.85285 13.601 16.6405 44.7828 131.972 390.434
lowerback 15.8088 -1.69989 -10.0294
upperback 1.62924 -3.69948 2.48136
thorax -6.29405 -1.48135 9.16349
lowerneck -15.3192 -2.57498 -2.12097
upperneck 2.65833 -3.48874 8.89008
head 3.46988 -1.21677 2.82522
rclavicle 2.8625e-014 -6.36111e-015
rhumerus -43.7318 -13.8168 -39.2995
rradius 89.163
rwrist -20.5699
rhand -28.6136 330.854
rfingers 7.12502
rthumb -1.97854 -419.116
lclavicle 2.8625e-014 -6.36111e-015
lhumerus -15.9387 -9.83507 57.6187
lradius 107.575
lwrist 12.666
lhand -44.285 -364.327
lfingers 7.12502
lthumb -17.0956 24.9405
rfemur -11.6262 18.8661 7.11127
rtibia 16.3169
rfoot -11.7037 -22.9486
rtoes -27.0908
lfemur -423.061 36.7427 -358.305
ltibia 72.0258
lfoot 159.109 -182.971
ltoes -15.6324
1082
root 2.9998 13.7685 16.9606 40.7991 131.578 389.072
lowerback 16.3466 -1.22743 -9.84101
upperback 2.22931 -3.04199 2.25497
thorax -6.10396 -1.1852 8.68771
lowerneck -14.6898 -2.92701 -2.66927
upperneck 3.06565 -3.92064 8.88704
head 3.52869 -1.4552 2.88165
rclavicle -1.90833e-014 3.49861e-014
rhumerus -43.455 -12.4437 -40.6422
rradius 91.2206
rwrist -18.0143
rhand -28.0009 332.272
rfingers 7.12502
rthumb -1.38683 -417.704
lclavicle -1.90833e-014 3.49861e-014
lhumerus -17.1766 -10.5692 59.094
lradius 109.789
lwrist 12.8797
lhand -45.0359 -365.801
lfingers 7.12502
lthumb -17.8182 23.4029
rfemur -8.72699 16.5453 9.04845
rtibia 16.9495
rfoot -11.4787 -22.8449
rtoes -29.0766
lfemur -417.386 36.3257 -356.134
ltibia 67.7498
lfoot 162.064 -184.257
ltoes -13.5089
1083
root 3.10626 13.9359 17.3943 38.562 132.786 386.269
lowerback 15.2072 -1.54319 -9.48171
upperback 1.91483 -3.33039 2.20072
thorax -5.78428 -1.35499 8.41349
lowerneck -14.0755 -3.21691 -3.06245
upperneck 3.52678 -4.29971 8.81963
head 3.59945 -1.66713 2.898
rclavicle 7.95139e-014 -4.77083e-014
rhumerus -42.8779 -10.9248 -42.4978
rradius 93.4437
rwrist -15.7034
rhand -27.5924 333.215
rfingers 7.12502
rthumb -0.992266 -416.762
lclavicle 7.95139e-014 -4.77083e-014
lhumerus -18.2323 -11.1317 60.5751
lradius 111.828
lwrist 12.8117
lhand -45.3255 -366.93
lfingers 7.12502
lthumb -18.0969 22.2479
rfemur -9.23344 15.5461 10.4031
rtibia 18.3481
rfoot -13.4599 -25.725
rtoes -27.8221
lfemur -416.668 35.4185 -356.363
ltibia 62.7914
lfoot 166.172 -184.926
ltoes -12.6683
